<svg width="321" height="65" viewBox="0 0 321 65" fill="none" xmlns="http://www.w3.org/2000/svg">
<path d="M138.583 20.8222C138.764 18.8358 138.282 17.2808 137.139 16.1572C135.995 15.0135 134.069 14.4416 131.36 14.4416C129.635 14.4416 128.19 14.6423 127.026 15.0436C125.882 15.4449 124.99 15.9967 124.347 16.6989C123.725 17.4012 123.334 18.2138 123.174 19.1368C122.993 19.8591 123.003 20.5213 123.204 21.1232C123.424 21.7051 123.836 22.2368 124.438 22.7184C125.06 23.1999 125.872 23.6313 126.876 24.0125C127.899 24.3938 129.113 24.7349 130.517 25.0358L135.333 26.1193C138.624 26.8417 141.382 27.7947 143.61 28.9786C145.857 30.1423 147.623 31.5268 148.907 33.132C150.191 34.7371 151.034 36.5329 151.435 38.5194C151.856 40.5058 151.866 42.6728 151.465 45.0203C150.783 49.0734 149.208 52.5045 146.74 55.3136C144.272 58.1226 141.051 60.2595 137.079 61.7242C133.106 63.189 128.511 63.9213 123.294 63.9213C117.957 63.9213 113.422 63.1288 109.69 61.5437C105.978 59.9385 103.289 57.4906 101.624 54.2C99.9788 50.8893 99.5775 46.6656 100.42 41.5291H116.312C116.071 43.4152 116.271 45.0003 116.913 46.2844C117.556 47.5686 118.589 48.5417 120.013 49.2038C121.438 49.866 123.214 50.197 125.341 50.197C127.146 50.197 128.691 49.9763 129.976 49.5349C131.26 49.0935 132.273 48.4815 133.015 47.699C133.758 46.9165 134.209 46.0236 134.37 45.0203C134.53 44.0974 134.37 43.2747 133.888 42.5524C133.407 41.83 132.534 41.1779 131.27 40.5961C130.006 40.0142 128.27 39.4825 126.063 39.0009L120.164 37.6766C114.927 36.4727 110.974 34.4863 108.306 31.7174C105.637 28.9485 104.694 25.1562 105.477 20.3407C106.119 16.408 107.734 12.9769 110.322 10.0475C112.931 7.09794 116.241 4.81055 120.254 3.18531C124.287 1.54 128.752 0.717346 133.647 0.717346C138.624 0.717346 142.787 1.55003 146.138 3.21541C149.509 4.88078 151.926 7.21833 153.391 10.228C154.876 13.2378 155.277 16.7692 154.595 20.8222H138.583Z" fill="#3E3E3E"/>
<path d="M164.051 63.199H145.993L176.571 1.56007H199.445L209.558 63.199H191.499L185.48 18.5349H184.998L164.051 63.199ZM164.773 38.8805H198.723L196.556 51.4009H162.606L164.773 38.8805Z" fill="#3E3E3E"/>
<path d="M252.107 21.9057C252.027 20.8423 251.807 19.9093 251.445 19.1067C251.084 18.284 250.573 17.5918 249.91 17.03C249.248 16.4481 248.426 16.0167 247.442 15.7358C246.479 15.4348 245.346 15.2844 244.041 15.2844C241.232 15.2844 238.674 15.9565 236.367 17.3009C234.059 18.6452 232.123 20.5815 230.558 23.1096C229.013 25.6378 227.95 28.6876 227.368 32.2591C226.766 35.8708 226.716 38.9608 227.217 41.5291C227.719 44.0974 228.802 46.0637 230.468 47.4281C232.153 48.7925 234.43 49.4747 237.3 49.4747C239.868 49.4747 242.085 49.1035 243.951 48.3611C245.817 47.6187 247.312 46.5653 248.436 45.2009C249.559 43.8365 250.262 42.2313 250.542 40.3854L253.432 40.6863H239.346L241.273 28.7679H268.601L267.216 37.3155C266.293 42.9336 264.307 47.7391 261.257 51.732C258.227 55.7048 254.455 58.7547 249.94 60.8815C245.426 62.9883 240.47 64.0417 235.072 64.0417C229.093 64.0417 224.047 62.7676 219.934 60.2194C215.82 57.6712 212.881 54.0394 211.115 49.3242C209.37 44.609 209.028 39.0009 210.092 32.4999C210.935 27.4035 212.46 22.8889 214.667 18.9562C216.894 15.0235 219.613 11.7028 222.823 8.99406C226.033 6.26525 229.575 4.20861 233.447 2.82414C237.32 1.41961 241.333 0.717346 245.486 0.717346C249.118 0.717346 252.418 1.23903 255.388 2.2824C258.358 3.3057 260.896 4.77043 263.003 6.67658C265.109 8.56267 266.685 10.7999 267.728 13.3882C268.791 15.9766 269.223 18.8158 269.022 21.9057H252.107Z" fill="#3E3E3E"/>
<path d="M266.304 63.199L276.537 1.56007H320.96L318.673 15.0436H290.983L289.298 25.6378H314.7L312.412 39.1213H287.01L285.325 49.7155H312.894L310.607 63.199H266.304Z" fill="#3E3E3E"/>
<path d="M82.6872 0.717367H109.511L79.5652 64.0418H52.7417L82.6872 0.717367Z" fill="#FF4D4D"/>
<path d="M56.3026 0.717367H83.1261L53.1807 64.0418H26.3572L56.3026 0.717367Z" fill="#525671"/>
<path d="M30.4356 0.717367H57.2591L27.3136 64.0418H0.490112L30.4356 0.717367Z" fill="#ACDDFE"/>
</svg>
